# xmcd CD database file
#
# Track frame offsets:
#	150
#	21053
#	42114
#	64518
#	108602
#	130402
#	142839
#	162555
#	180039
#	187521
#	223866
#	249442
#	270665
#	290841
#	317373
#	328188
#	345526
#
# Disc length: 4763 seconds
#
# Revision: 0
# Processed by: cddbd v1.5.2PL0 Copyright (c) Steve Scherf et al.
# Submitted via: CDex 1.70beta2
#
DISCID=f1129911
DTITLE=Park Stickney - All Harp - Globe Live
DYEAR=2014
DGENRE=Jazz
TTITLE0=Swiss Miss
TTITLE1=Take 5
TTITLE2=Morning has broken
TTITLE3=Debussy Dances
TTITLE4=Bohemian Rhapsody
TTITLE5=Surprise Corner Intro
TTITLE6=Surprise Corner
TTITLE7=On n'est pas la pour se faire engueuler
TTITLE8=Beethoven Bla-bla
TTITLE9=Beethoven
TTITLE10=In a sentimental mood
TTITLE11=Where's Mary Ford
TTITLE12=Fragile
TTITLE13=Caravan
TTITLE14=Dirty Laundry Rag
TTITLE15=How insensitive
TTITLE16=Eh Bex
EXTD=YEAR: 2014
EXTT0=
EXTT1=
EXTT2=
EXTT3=
EXTT4=
EXTT5=
EXTT6=
EXTT7=
EXTT8=
EXTT9=
EXTT10=
EXTT11=
EXTT12=
EXTT13=
EXTT14=
EXTT15=
EXTT16=
PLAYORDER=
